<?xml version="1.0" encoding="utf-8"?>
<!-- Generated by IcoMoon.io -->
<!DOCTYPE svg PUBLIC "-//W3C//DTD SVG 1.1//EN" "http://www.w3.org/Graphics/SVG/1.1/DTD/svg11.dtd">
<svg version="1.1" xmlns="http://www.w3.org/2000/svg" xmlns:xlink="http://www.w3.org/1999/xlink" width="24" height="24" viewBox="0 0 24 24">
<path fill="#ffdfdf" d="M21.895 3.949c-2.722-2.697-7.074-2.753-9.893-0.216-2.82-2.537-7.171-2.481-9.894 0.216-2.806 2.778-2.806 7.282 0 10.061 0.802 0.794 8.29 8.206 8.29 8.206 0.887 0.879 2.322 0.879 3.208 0 0 0 8.199-8.116 8.29-8.206 2.806-2.78 2.806-7.283-0.001-10.061zM20.826 12.951l-8.29 8.206c-0.295 0.293-0.775 0.293-1.069 0l-8.29-8.206c-2.213-2.19-2.213-5.753 0-7.943 2.133-2.111 5.562-2.186 7.807-0.167l1.017 0.915 1.016-0.915c2.245-2.019 5.674-1.945 7.808 0.167 2.212 2.189 2.212 5.752 0.001 7.943zM6.94 5.626c0.208 0 0.375 0.168 0.375 0.375s-0.168 0.375-0.375 0.375h-0.001c-1.345 0-2.437 1.091-2.437 2.437v0.001c0 0.207-0.168 0.375-0.375 0.375s-0.375-0.168-0.375-0.375v0c0-1.759 1.426-3.185 3.184-3.187 0.002 0 0.002-0.001 0.003-0.001z"></path>
</svg>
