<?xml version="1.0" encoding="utf-8"?>
<!-- Generator: Adobe Illustrator 19.0.0, SVG Export Plug-In . SVG Version: 6.00 Build 0)  -->
<svg version="1.1" id="Layer_1" xmlns="http://www.w3.org/2000/svg" xmlns:xlink="http://www.w3.org/1999/xlink" x="0px" y="0px"
	 viewBox="0 0 1476.9 1328" style="enable-background:new 0 0 1476.9 1328;" xml:space="preserve">
<style type="text/css">
	.st0{fill:#333333;}
	.st1{fill:#FFFFFF;}
</style>
<path class="st0" d="M324.8,806.1c6,34.6,14.8,68.2,17.3,102.3c6.3,84.7,9.4,169.6,14.6,254.4c2,32.1,8.2,64.1,8.5,96.2
	c0.2,26-10,40.9-38.6,57.3c-45,25.8-83.1,0.8-123.7,4.7c-21,2.1-29.4-17.1-30.5-36.9c-3.4-61.8-1.5-124.4-11-185.2
	c-14.3-90.9-4.2-181.7-9.5-272.4c-4.1-69.9-19.5-136.6-59.2-196c-9.2-13.8-14.6-30.1-22.9-44.6c-7.2-12.5-10.1-29.8-33.8-23.9
	c-5.9,1.5-19.9-17.7-25.5-29.6c-17.8-37.8-13.4-54.7,17.1-81.9c7.8-7,15.7-13.8,23.4-21c35.6-33.2,43.6-35.6,76.8-4
	c30.9,29.5,66.6,35.2,105.9,34.2c44-1.2,88-4,131.9-2.5c46.7,1.5,96.4-1.8,139.1,13.2c52.2,18.5,101.8,50.3,120.2,110.6
	c0.6,2,2.3,4.9,1.5,5.9c-24.7,34.4-49.5,68.7-75,102.4c-1.3,1.7-10.2-0.3-14.2-2.8c-18.5-11.9-36.5-24.6-54.7-37
	c-1.7-1.2-3.5-2.3-5.5-3c-26.6-10.4-126.1,19.1-133.8,45C332.4,728,330.6,767.3,324.8,806.1z"/>
<path class="st0" d="M865.2,1317.7L782.9,65.9c0,0,72.4-51.5,241.6-45.4c0,0,13.2-32.2,245.2-15.8c0,0,211.3,30.3,200.6,398.5
	c0,0,54.1,309.5-147.7,322.1l-246.7,9c0,0-27.9-4.3-25.1,51.4l26.1,492.4l-5,35C1071.9,1312.9,984.7,1343.5,865.2,1317.7z"/>
<path class="st1" d="M1015.5,194.1c0,0,130.1-50.9,231.3,0c0,0,46.1,4.6,33.5,118.2c-12.6,113.6-30.3,242.2-30.3,242.2
	s5.7,36-92.7,29l-116.7-5.7c0,0-11.8,14.6-17.5-58.4l-22.1-281.1C1000.9,238.2,993.4,202.4,1015.5,194.1z"/>
</svg>
