<?xml version="1.0" encoding="utf-8"?>
<!-- Generator: Adobe Illustrator 19.0.0, SVG Export Plug-In . SVG Version: 6.00 Build 0)  -->
<svg version="1.1" id="Layer_1" xmlns="http://www.w3.org/2000/svg" xmlns:xlink="http://www.w3.org/1999/xlink" x="0px" y="0px"
	 viewBox="172 306.9 955 181.1" style="enable-background:new 172 306.9 955 181.1;" xml:space="preserve">
<style type="text/css">
	.st0{fill:#AAC5CC;stroke:#3C545F;stroke-width:4;stroke-linecap:round;stroke-linejoin:round;stroke-miterlimit:10;}
	.st1{fill:#576D75;stroke:#3C545F;stroke-width:4;stroke-linecap:round;stroke-linejoin:round;stroke-miterlimit:10;}
	.st2{fill:#FFFFFF;stroke:#3D555F;stroke-width:4;stroke-linecap:round;stroke-linejoin:round;stroke-miterlimit:10;}
	.st3{fill:#CDD5D4;}
	.st4{fill:#70C0A2;stroke:#3C545F;stroke-width:4;stroke-linecap:round;stroke-linejoin:round;stroke-miterlimit:10;}
	.st5{fill:none;stroke:#3C545F;stroke-width:4;stroke-linecap:round;stroke-linejoin:round;stroke-miterlimit:10;}
	.st6{fill:none;stroke:#9AD4BD;stroke-width:4;stroke-linecap:round;stroke-linejoin:round;stroke-miterlimit:10;}
	.st7{fill:#FFFFFF;stroke:#3D555F;stroke-width:7;stroke-linecap:round;stroke-linejoin:round;stroke-miterlimit:10;}
	.st8{fill:none;stroke:#3D555F;stroke-width:4;stroke-linecap:round;stroke-linejoin:round;stroke-miterlimit:10;}
	.st9{fill:#DFE5E5;}
	.st10{fill:#3D555F;}
	.st11{fill:#E4E9E9;}
	.st12{fill:#EFC686;stroke:#3D555F;stroke-width:4;stroke-linecap:round;stroke-linejoin:round;stroke-miterlimit:10;}
	.st13{fill:#EFC686;}
	.st14{fill:#E88480;stroke:#3C545F;stroke-width:4;stroke-linecap:round;stroke-linejoin:round;stroke-miterlimit:10;}
	.st15{fill:none;stroke:#C5DADD;stroke-width:4;stroke-linecap:round;stroke-linejoin:round;stroke-miterlimit:10;}
	.st16{fill:#3C545F;}
	.st17{fill:#63C7C6;stroke:#3C545F;stroke-width:4;stroke-linecap:round;stroke-linejoin:round;stroke-miterlimit:10;}
	.st18{fill:#E9837E;stroke:#AF6362;stroke-width:4;stroke-linecap:round;stroke-linejoin:round;stroke-miterlimit:10;}
	.st19{fill:#CC7E7D;}
	.st20{fill:none;stroke:#AF6362;stroke-width:4;stroke-linecap:round;stroke-linejoin:round;stroke-miterlimit:10;}
	.st21{fill:none;stroke:#C09A67;stroke-width:4;stroke-linecap:round;stroke-linejoin:round;stroke-miterlimit:10;}
	.st22{fill:#F1EBE1;stroke:#3C545F;stroke-width:4;stroke-linecap:round;stroke-linejoin:round;stroke-miterlimit:10;}
	.st23{fill:#E5DFD3;}
	.st24{fill:#F9DCDB;}
	.st25{fill:none;stroke:#3D555F;stroke-width:2;stroke-linecap:round;stroke-linejoin:round;stroke-miterlimit:10;}
	.st26{fill:#576D75;}
	.st27{fill:none;stroke:#9CA8D3;stroke-width:3;stroke-linecap:round;stroke-linejoin:round;stroke-miterlimit:10;}
	.st28{fill:#F1EBE1;stroke:#3C545F;stroke-width:3;stroke-linecap:round;stroke-linejoin:round;stroke-miterlimit:10;}
	.st29{fill:none;stroke:#3C545F;stroke-width:3;stroke-linecap:round;stroke-linejoin:round;stroke-miterlimit:10;}
	.st30{fill:#E88480;stroke:#3C545F;stroke-width:3;stroke-linecap:round;stroke-linejoin:round;stroke-miterlimit:10;}
	.st31{fill:#838FC1;stroke:#3C545F;stroke-width:4;stroke-linecap:round;stroke-linejoin:round;stroke-miterlimit:10;}
	.st32{fill:#838FC1;stroke:#3C545F;stroke-width:3;stroke-linecap:round;stroke-linejoin:round;stroke-miterlimit:10;}
</style>
<g>
	<g>
		<g>
			<path class="st0" d="M942.1,378c-1.9,2.9-9-18.5-6.9-33.6c5-14.7,31.9-34.2,64-37.2c41.8-3,65.3,16.9,73.4,23.9
				c2.6,2.2,4.2,19.6,5,22.9l-0.9,10.5c2.4,10.5-1.6,4.7-12.6,3.7c-28.3-2.7-72.6,12.3-112.7,25.4
				C941.5,396.8,943.3,388.1,942.1,378z"/>
			<polygon class="st1" points="1065.2,661.4 1010.6,661.4 964.7,661.4 964.7,640.3 1065.2,640.3 			"/>
			<polygon class="st2" points="1054.6,576.9 1015.2,608.6 974.6,577.2 1004,562.3 1004,529.4 1022.7,529.4 1022.7,562.3 			"/>
			<path class="st3" d="M1020.8,553.8c0,0-3.5,0.5-7.2,0.5s-7.7-0.5-7.7-0.5v-6.5h14.9V553.8z"/>
			<path class="st4" d="M1075.7,595.4c-0.5-7.2-9-12.7-17.1-16.6c-8.1-3.9-20.8-9.4-20.8-9.4s-8.8,16.4-24.2,16.4
				c-16.9,0-22.5-17-22.5-17s-12.4,6-20.5,9.9s-16.6,9.3-17.1,16.6c-0.5,7.2,0,28.3,0,28.3h26.3v16.6h34.8h34.8v-16.5h26.3
				C1075.7,623.7,1076.2,602.6,1075.7,595.4z"/>
			<line class="st5" x1="979.7" y1="599.6" x2="979.7" y2="623.7"/>
			<line class="st5" x1="1049.5" y1="599.6" x2="1049.5" y2="623.7"/>
			<polygon class="st1" points="985.1,661.4 992.7,665 992.7,702.9 966.5,702.9 966.5,661.4 			"/>
			<polygon class="st1" points="1041.5,661.4 1033.8,665 1033.8,702.9 1060,702.9 1060,661.4 			"/>
			<path class="st6" d="M968.7,588.3c0,0-7.5,1.7-7.5,9.8"/>
			<path class="st6" d="M1060.2,588.3c0,0,7.5,1.7,7.5,9.8"/>
			<path class="st2" d="M981.5,673.1"/>
			<g>
				<path class="st2" d="M978.4,656.5c-1.1-0.7,0.8-32.8,0.8-32.8H955l1.6,32.5c0,0-6,5.8-6.1,10.3c-0.1,3.3,1.5,7,3.7,9.4
					c3.9,4.3,23,4.2,24.5-1.2c0,0-2.6,2.9,2.8,5.6c8.4,2,5-12.8,3.3-15.8C983.2,661.8,984.1,662,978.4,656.5z"/>
				<path class="st7" d="M977.6,677.8"/>
				<path class="st7" d="M973.4,670.3"/>
				<path class="st2" d="M981.5,673.1"/>
				<path class="st2" d="M977.6,667.2c0,0.2,3.3,4.9,0.5,9.4"/>
				<line class="st8" x1="970.9" y1="677.2" x2="970.5" y2="674.8"/>
				<line class="st8" x1="961.5" y1="677.2" x2="961.2" y2="674.8"/>
			</g>
			<g>
				<path class="st2" d="M1050.4,656.5c1.1-0.7-0.8-32.8-0.8-32.8h24.2l-1.6,32.5c0,0,6,5.8,6.1,10.3c0.1,3.3-1.5,7-3.7,9.4
					c-3.9,4.3-23,4.2-24.5-1.2c0,0,2.6,2.9-2.8,5.6c-8.4,2-5-12.8-3.3-15.8C1045.6,661.8,1044.7,662,1050.4,656.5z"/>
				<path class="st7" d="M1051.3,677.8"/>
				<path class="st7" d="M1055.4,670.3"/>
				<path class="st2" d="M1047.4,673.1"/>
				<path class="st2" d="M1051.3,667.2c0,0.2-3.3,4.9-0.5,9.4"/>
				<line class="st8" x1="1058" y1="677.2" x2="1058.4" y2="674.8"/>
				<line class="st8" x1="1067.3" y1="677.2" x2="1067.7" y2="674.8"/>
			</g>
			<path class="st7" d="M977.5,677.8"/>
			<path class="st7" d="M973.4,670.3"/>
			<path class="st2" d="M981.4,673.1"/>
			<path class="st2" d="M980.9,677.8"/>
			<path class="st2" d="M978.5,669"/>
			<polygon class="st3" points="956.8,625.5 977.5,625.5 977.1,631 957.2,631 			"/>
			<polygon class="st3" points="1072.1,625.5 1051.4,625.5 1051.8,631 1071.7,631 			"/>
			<path class="st1" d="M939.4,721.4h53.3v-18.5h-36.3c-9.3,0-17,7.6-17,17V721.4z"/>
			<path class="st2" d="M960.3,702.9c0,0,2,9.2,12.7,9.2s19.8,0,19.8,0v-9.2H960.3z"/>
			<path class="st3" d="M962.9,704.6h28v4.1C990.9,708.8,978.1,708.9,962.9,704.6z"/>
			<path class="st1" d="M1087.2,721.4h-53.3v-18.5h36.3c9.3,0,17,7.6,17,17V721.4z"/>
			<path class="st2" d="M1066.3,702.9c0,0-2,9.2-12.7,9.2s-19.8,0-19.8,0v-9.2H1066.3z"/>
			<path class="st3" d="M1063.6,704.6h-28v4.1C1035.6,708.8,1048.5,708.9,1063.6,704.6z"/>
			<path class="st9" d="M1056.7,634.2L1056.7,634.2c-0.6,0-1,0.5-1,1v3.5c0,0.6,0.5,1,1,1l0,0c0.6,0,1-0.5,1-1v-3.5
				C1057.7,634.6,1057.2,634.2,1056.7,634.2z"/>
			<path class="st9" d="M1067.1,634.2L1067.1,634.2c-0.6,0-1,0.5-1,1v3.5c0,0.6,0.5,1,1,1l0,0c0.6,0,1-0.5,1-1v-3.5
				C1068.1,634.6,1067.6,634.2,1067.1,634.2z"/>
			<path class="st9" d="M1062.2,638.8L1062.2,638.8c-0.6,0-1,0.5-1,1v3.5c0,0.6,0.5,1,1,1l0,0c0.6,0,1-0.5,1-1v-3.5
				C1063.2,639.3,1062.7,638.8,1062.2,638.8z"/>
			<path class="st9" d="M1056.7,645.8L1056.7,645.8c-0.6,0-1,0.5-1,1v3.5c0,0.6,0.5,1,1,1l0,0c0.6,0,1-0.5,1-1v-3.5
				C1057.7,646.2,1057.2,645.8,1056.7,645.8z"/>
			<path class="st9" d="M1067.1,645.8L1067.1,645.8c-0.6,0-1,0.5-1,1v3.5c0,0.6,0.5,1,1,1l0,0c0.6,0,1-0.5,1-1v-3.5
				C1068.1,646.2,1067.6,645.8,1067.1,645.8z"/>
			<path class="st9" d="M1062.2,650.4L1062.2,650.4c-0.6,0-1,0.5-1,1v3.5c0,0.6,0.5,1,1,1l0,0c0.6,0,1-0.5,1-1v-3.5
				C1063.2,650.8,1062.7,650.4,1062.2,650.4z"/>
			<path class="st9" d="M962,634.2L962,634.2c-0.6,0-1,0.5-1,1v3.5c0,0.6,0.5,1,1,1l0,0c0.6,0,1-0.5,1-1v-3.5
				C963,634.6,962.6,634.2,962,634.2z"/>
			<path class="st9" d="M972.4,634.2L972.4,634.2c-0.6,0-1,0.5-1,1v3.5c0,0.6,0.5,1,1,1l0,0c0.6,0,1-0.5,1-1v-3.5
				C973.4,634.6,973,634.2,972.4,634.2z"/>
			<path class="st9" d="M967.5,638.8L967.5,638.8c-0.6,0-1,0.5-1,1v3.5c0,0.6,0.5,1,1,1l0,0c0.6,0,1-0.5,1-1v-3.5
				C968.5,639.3,968,638.8,967.5,638.8z"/>
			<path class="st9" d="M962,645.8L962,645.8c-0.6,0-1,0.5-1,1v3.5c0,0.6,0.5,1,1,1l0,0c0.6,0,1-0.5,1-1v-3.5
				C963,646.2,962.6,645.8,962,645.8z"/>
			<path class="st9" d="M972.4,645.8L972.4,645.8c-0.6,0-1,0.5-1,1v3.5c0,0.6,0.5,1,1,1l0,0c0.6,0,1-0.5,1-1v-3.5
				C973.4,646.2,973,645.8,972.4,645.8z"/>
			<path class="st9" d="M967.5,650.4L967.5,650.4c-0.6,0-1,0.5-1,1v3.5c0,0.6,0.5,1,1,1l0,0c0.6,0,1-0.5,1-1v-3.5
				C968.5,650.8,968,650.4,967.5,650.4z"/>
			<path class="st9" d="M1013.6,576.4L1013.6,576.4c-0.6,0-1,0.5-1,1v3.5c0,0.6,0.5,1,1,1l0,0c0.6,0,1-0.5,1-1v-3.5
				C1014.6,576.8,1014.2,576.4,1013.6,576.4z"/>
			<path class="st9" d="M1007,571.3L1007,571.3c-0.6,0-1,0.5-1,1v3.5c0,0.6,0.5,1,1,1l0,0c0.6,0,1-0.5,1-1v-3.5
				C1008,571.8,1007.5,571.3,1007,571.3z"/>
			<path class="st9" d="M1020.5,571.3L1020.5,571.3c-0.6,0-1,0.5-1,1v3.5c0,0.6,0.5,1,1,1l0,0c0.6,0,1-0.5,1-1v-3.5
				C1021.5,571.8,1021.1,571.3,1020.5,571.3z"/>
			<path class="st2" d="M925.6,450.6c0,52.4,39.2,95.2,87.5,95.2s87.5-40.1,87.5-95.2c0-39.9-0.3-99.4-49.1-99.4
				c-32.9-1.5-39.3-0.1-39.3-0.1s-7.5,6.8-43.1,10.4C932.6,365.2,925.6,410.6,925.6,450.6z"/>
			<path class="st8" d="M1004.9,464.2c0,0,1.3,5.9,9.6,5.9c8.4,0,8.8-5.9,8.8-5.9"/>
			<line class="st8" x1="1014.1" y1="434" x2="1014.1" y2="461.1"/>
			<path class="st8" d="M983.1,445.7c0,0,2.7-12.6-8.3-12.6c-10.3,0-7.6,12.6-7.6,12.6"/>
			<circle class="st10" cx="975" cy="436.3" r="4.4"/>
			<path class="st8" d="M1061.2,445.7c0,0,2.7-12.6-8.3-12.6c-10.3,0-7.6,12.6-7.6,12.6"/>
			<path class="st11" d="M1013.3,400.9c-56.2,9.4-85.8,45.8-85.8,45.8l2.1-50.5c1.4-18.9,23.2-51.2,78.5-53.5
				c66.3-2.7,82,16,84.6,36l3.2,23.8C1095.9,402.4,1074.9,393.9,1013.3,400.9z"/>
			<circle class="st10" cx="1053.2" cy="436.3" r="4.4"/>
			<path class="st8" d="M1075.1,418.3c0,0-13-16.4-24.6-10.3"/>
			<path class="st8" d="M955.5,423.1c0,0,6.6-12.1,21-6.4"/>
			<path class="st11" d="M936.9,493.1c0,0,12.7,27.5,40,41.5c32.5,16.7,60.1,7.6,77.3-2c17.2-9.5,30.4-24.9,35.5-39.6
				c0,0-26.5,43.1-75,43.1C966.2,536.1,936.9,493.1,936.9,493.1z"/>
			<path class="st9" d="M980.6,518.5L980.6,518.5c-0.6,0-1,0.5-1,1v9c0,0.6,0.5,1,1,1l0,0c0.6,0,1-0.5,1-1v-9
				C981.6,519,981.1,518.5,980.6,518.5z"/>
			<path class="st9" d="M987.4,526.8L987.4,526.8c-0.6,0-1,0.5-1,1v9c0,0.6,0.5,1,1,1l0,0c0.6,0,1-0.5,1-1v-9
				C988.4,527.3,988,526.8,987.4,526.8z"/>
			<path class="st9" d="M994.3,518.7L994.3,518.7c-0.6,0-1,0.5-1,1v9c0,0.6,0.5,1,1,1l0,0c0.6,0,1-0.5,1-1v-9
				C995.3,519.2,994.9,518.7,994.3,518.7z"/>
			<path class="st9" d="M998.9,529.8L998.9,529.8c-0.6,0-1,0.5-1,1v9c0,0.6,0.5,1,1,1l0,0c0.6,0,1-0.5,1-1v-9
				C1000,530.3,999.5,529.8,998.9,529.8z"/>
			<path class="st9" d="M1013.3,529.8L1013.3,529.8c-0.6,0-1,0.5-1,1v9c0,0.6,0.5,1,1,1l0,0c0.6,0,1-0.5,1-1v-9
				C1014.3,530.3,1013.9,529.8,1013.3,529.8z"/>
			<path class="st9" d="M1025.6,529.8L1025.6,529.8c-0.6,0-1,0.5-1,1v9c0,0.6,0.5,1,1,1l0,0c0.6,0,1-0.5,1-1v-9
				C1026.6,530.3,1026.1,529.8,1025.6,529.8z"/>
			<path class="st9" d="M1004.3,522.9L1004.3,522.9c-0.6,0-1,0.5-1,1v9c0,0.6,0.5,1,1,1l0,0c0.6,0,1-0.5,1-1v-9
				C1005.3,523.4,1004.9,522.9,1004.3,522.9z"/>
			<path class="st9" d="M1044.5,518.5L1044.5,518.5c0.6,0,1,0.5,1,1v9c0,0.6-0.5,1-1,1l0,0c-0.6,0-1-0.5-1-1v-9
				C1043.4,519,1043.9,518.5,1044.5,518.5z"/>
			<path class="st9" d="M1037.6,526.8L1037.6,526.8c0.6,0,1,0.5,1,1v9c0,0.6-0.5,1-1,1l0,0c-0.6,0-1-0.5-1-1v-9
				C1036.6,527.3,1037.1,526.8,1037.6,526.8z"/>
			<path class="st9" d="M1030.7,518.7L1030.7,518.7c0.6,0,1,0.5,1,1v9c0,0.6-0.5,1-1,1l0,0c-0.6,0-1-0.5-1-1v-9
				C1029.7,519.2,1030.2,518.7,1030.7,518.7z"/>
			<path class="st9" d="M1020.1,522.9L1020.1,522.9c0.6,0,1,0.5,1,1v9c0,0.6-0.5,1-1,1l0,0c-0.6,0-1-0.5-1-1v-9
				C1019,523.4,1019.5,522.9,1020.1,522.9z"/>
			<path class="st12" d="M1055.4,428.6"/>
			<circle class="st2" cx="1002.5" cy="344.6" r="21.1"/>
			<path class="st13" d="M973.7,378.5l8,12.6c0.5,0.8,1.8,0.4,1.7-0.6c-0.3-3.9,0.1-9.5,4.1-15"/>
			<path class="st13" d="M982.9,377.2l8,12.6c0.5,0.8,1.8,0.4,1.7-0.6c-0.3-3.9,0.1-9.5,4.1-15"/>
			<path class="st13" d="M989.8,373.4l8,12.6c0.5,0.8,1.8,0.4,1.7-0.6c-0.3-3.9,0.1-9.5,4.1-15"/>
			<path class="st13" d="M999,377.2l8,12.6c0.5,0.8,1.8,0.4,1.7-0.6c-0.3-3.9,0.1-9.5,4.1-15"/>
			<path class="st13" d="M1017.2,371.8l5.3,13.9c0.3,0.9,1.7,0.7,1.8-0.2c0.4-3.8,2-9.3,7-13.9"/>
			<path class="st13" d="M1010.8,368.6l5.3,13.9c0.3,0.9,1.7,0.7,1.8-0.2c0.4-3.8,2-9.3,7-13.9"/>
			<path class="st13" d="M1024.7,369l5.3,13.9c0.3,0.9,1.7,0.7,1.8-0.2c0.4-3.8,2-9.3,7-13.9"/>
			<path class="st1" d="M1001.1,376.8c-57.5,10-73.8,48.4-73.8,48.4l-6.5-18.3c-4.8-13.5-2-28.9,7.5-39.1
				c11.9-12.7,34.8-23.4,76.7-25.6c67.4-3.5,85.6,6.4,91.6,18c6.6,12.9,0.2,37.4,0.2,37.4S1064.2,369.4,1001.1,376.8z"/>
			<path class="st8" d="M1023.9,521.7c0,0-1.3-5.9-9.6-5.9c-8.4,0-8.8,5.9-8.8,5.9"/>
			<path class="st8" d="M984.5,493c0,0,5.4,5.9,20.7,5.9c8.8,0,8.8,0,8.8,0h8.1"/>
		</g>
	</g>
	<g>
		<g>
			<polygon class="st14" points="368.6,686.6 313.8,686.6 267.8,686.6 267.8,665.4 368.6,665.4 			"/>
			<polygon class="st2" points="358,601.9 318.4,633.7 277.7,602.2 307.2,587.3 307.2,554.3 325.9,554.3 325.9,587.3 			"/>
			<path class="st3" d="M324.1,578.8c0,0-3.5,0.5-7.2,0.5s-7.7-0.5-7.7-0.5v-6.5h14.9L324.1,578.8L324.1,578.8z"/>
			<path class="st0" d="M379.1,620.4c-0.5-7.2-9-12.7-17.1-16.6s-20.9-9.4-20.9-9.4l-24.3,23.8l-22.6-24.4c0,0-12.4,6-20.5,10
				c-8.1,3.9-16.6,9.4-17.1,16.6s0,28.4,0,28.4h26.3v16.6h34.9h34.9v-16.6H379C379.1,648.8,379.6,627.7,379.1,620.4z"/>
			<line class="st5" x1="282.8" y1="624.7" x2="282.8" y2="648.8"/>
			<line class="st5" x1="352.8" y1="624.7" x2="352.8" y2="648.8"/>
			<polygon class="st14" points="288.2,686.6 295.9,690.2 295.9,728.2 269.7,728.2 269.7,686.6 			"/>
			<polygon class="st14" points="344.8,686.6 337.1,690.2 337.1,728.2 363.4,728.2 363.4,686.6 			"/>
			<path class="st15" d="M271.9,613.3c0,0-7.6,1.7-7.5,9.8"/>
			<path class="st15" d="M363.6,613.3c0,0,7.6,1.7,7.5,9.8"/>
			<path class="st2" d="M284.6,698.3"/>
			<g>
				<path class="st2" d="M281.6,681.7c-1.1-0.7,0.8-32.9,0.8-32.9h-24.2l1.6,32.6c0,0-6,5.8-6.1,10.4c-0.1,3.3,1.5,7,3.7,9.5
					c3.9,4.3,23,4.2,24.5-1.2c0,0-2.6,2.9,2.8,5.6c8.4,2,5-12.8,3.3-15.8C286.4,687,287.3,687.2,281.6,681.7z"/>
				<path class="st2" d="M280.8,703.1"/>
				<path class="st2" d="M276.6,695.6"/>
				<path class="st2" d="M284.7,698.3"/>
				<path class="st2" d="M280.8,692.4c0,0.2,3.3,4.9,0.5,9.4"/>
				<line class="st8" x1="274" y1="702.5" x2="273.7" y2="700.1"/>
				<line class="st8" x1="264.6" y1="702.5" x2="264.3" y2="700.1"/>
			</g>
			<g>
				<path class="st2" d="M353.7,681.7c1.1-0.7-0.8-32.9-0.8-32.9h24.2l-1.6,32.6c0,0,6,5.8,6.1,10.4c0.1,3.3-1.5,7-3.7,9.5
					c-3.9,4.3-23,4.2-24.5-1.2c0,0,2.6,2.9-2.8,5.6c-8.4,2-5-12.8-3.3-15.8C348.9,687,348,687.2,353.7,681.7z"/>
				<path class="st2" d="M354.6,703.1"/>
				<path class="st2" d="M358.8,695.6"/>
				<path class="st2" d="M350.7,698.3"/>
				<path class="st2" d="M354.6,692.4c0,0.2-3.3,4.9-0.5,9.4"/>
				<line class="st8" x1="361.3" y1="702.5" x2="361.7" y2="700.1"/>
				<line class="st8" x1="370.7" y1="702.5" x2="371" y2="700.1"/>
			</g>
			<path class="st2" d="M280.7,703.1"/>
			<path class="st2" d="M276.5,695.6"/>
			<path class="st2" d="M284.6,698.3"/>
			<path class="st2" d="M284,703.1"/>
			<path class="st2" d="M281.7,694.2"/>
			<polygon class="st3" points="259.9,650.6 280.7,650.6 280.2,656.1 260.3,656.1 			"/>
			<polygon class="st3" points="375.4,650.6 354.7,650.6 355.1,656.1 375.1,656.1 			"/>
			<path class="st1" d="M242.5,746.8h53.4v-18.6h-36.4c-9.3,0-17,7.6-17,17V746.8z"/>
			<path class="st2" d="M263.4,728.2c0,0,2,9.3,12.7,9.3s19.9,0,19.9,0v-9.3H263.4z"/>
			<path class="st3" d="M266.1,729.9h28.1v4.2C294.1,734.1,281.2,734.2,266.1,729.9z"/>
			<path class="st1" d="M390.5,746.8h-53.4v-18.6h36.5c9.3,0,17,7.6,17,17v1.6H390.5z"/>
			<path class="st2" d="M369.6,728.2c0,0-2,9.3-12.7,9.3s-19.9,0-19.9,0v-9.3H369.6z"/>
			<path class="st3" d="M367,729.9h-28.1v4.2C338.9,734.1,351.8,734.2,367,729.9z"/>
			<path class="st9" d="M360,659.3L360,659.3c-0.6,0-1,0.5-1,1v3.5c0,0.6,0.5,1,1,1l0,0c0.6,0,1-0.5,1-1v-3.5
				C361,659.8,360.6,659.3,360,659.3z"/>
			<path class="st9" d="M370.4,659.3L370.4,659.3c-0.6,0-1,0.5-1,1v3.5c0,0.6,0.5,1,1,1l0,0c0.6,0,1-0.5,1-1v-3.5
				C371.4,659.8,371,659.3,370.4,659.3z"/>
			<path class="st9" d="M365.5,663.9L365.5,663.9c-0.6,0-1,0.5-1,1v3.5c0,0.6,0.5,1,1,1l0,0c0.6,0,1-0.5,1-1v-3.5
				C366.5,664.4,366.1,663.9,365.5,663.9z"/>
			<path class="st9" d="M360,670.9L360,670.9c-0.6,0-1,0.5-1,1v3.5c0,0.6,0.5,1,1,1l0,0c0.6,0,1-0.5,1-1v-3.5
				C361,671.4,360.6,670.9,360,670.9z"/>
			<path class="st9" d="M370.4,670.9L370.4,670.9c-0.6,0-1,0.5-1,1v3.5c0,0.6,0.5,1,1,1l0,0c0.6,0,1-0.5,1-1v-3.5
				C371.4,671.4,371,670.9,370.4,670.9z"/>
			<path class="st9" d="M365.5,675.5L365.5,675.5c-0.6,0-1,0.5-1,1v3.5c0,0.6,0.5,1,1,1l0,0c0.6,0,1-0.5,1-1v-3.5
				C366.5,676,366.1,675.5,365.5,675.5z"/>
			<path class="st9" d="M265.1,659.3L265.1,659.3c-0.6,0-1,0.5-1,1v3.5c0,0.6,0.5,1,1,1l0,0c0.6,0,1-0.5,1-1v-3.5
				C266.1,659.8,265.7,659.3,265.1,659.3z"/>
			<path class="st9" d="M275.5,659.3L275.5,659.3c-0.6,0-1,0.5-1,1v3.5c0,0.6,0.5,1,1,1l0,0c0.6,0,1-0.5,1-1v-3.5
				C276.6,659.8,276.1,659.3,275.5,659.3z"/>
			<path class="st9" d="M270.6,663.9L270.6,663.9c-0.6,0-1,0.5-1,1v3.5c0,0.6,0.5,1,1,1l0,0c0.6,0,1-0.5,1-1v-3.5
				C271.6,664.4,271.2,663.9,270.6,663.9z"/>
			<path class="st9" d="M265.1,670.9L265.1,670.9c-0.6,0-1,0.5-1,1v3.5c0,0.6,0.5,1,1,1l0,0c0.6,0,1-0.5,1-1v-3.5
				C266.1,671.4,265.7,670.9,265.1,670.9z"/>
			<path class="st9" d="M275.5,670.9L275.5,670.9c-0.6,0-1,0.5-1,1v3.5c0,0.6,0.5,1,1,1l0,0c0.6,0,1-0.5,1-1v-3.5
				C276.6,671.4,276.1,670.9,275.5,670.9z"/>
			<path class="st9" d="M270.6,675.5L270.6,675.5c-0.6,0-1,0.5-1,1v3.5c0,0.6,0.5,1,1,1l0,0c0.6,0,1-0.5,1-1v-3.5
				C271.6,676,271.2,675.5,270.6,675.5z"/>
			<path class="st9" d="M316.8,601.4L316.8,601.4c-0.6,0-1,0.5-1,1v3.5c0,0.6,0.5,1,1,1l0,0c0.6,0,1-0.5,1-1v-3.5
				C317.9,601.8,317.4,601.4,316.8,601.4z"/>
			<path class="st9" d="M310.2,596.3L310.2,596.3c-0.6,0-1,0.5-1,1v3.5c0,0.6,0.5,1,1,1l0,0c0.6,0,1-0.5,1-1v-3.5
				C311.2,596.8,310.7,596.3,310.2,596.3z"/>
			<path class="st9" d="M323.8,596.3L323.8,596.3c-0.6,0-1,0.5-1,1v3.5c0,0.6,0.5,1,1,1l0,0c0.6,0,1-0.5,1-1v-3.5
				C324.8,596.8,324.3,596.3,323.8,596.3z"/>
			<polygon class="st14" points="313.4,665.4 321.1,665.4 321.1,681.1 313.3,686.1 			"/>
			<circle class="st16" cx="317.2" cy="670.9" r="1.4"/>
			<path class="st17" d="M343.5,666.7c0,0,3.5,5.6,10.6,5.6"/>
			<path class="st17" d="M292.2,666.7c0,0-3.5,5.6-10.6,5.6"/>
			<path class="st12" d="M242.6,381.2c0,0-5.8-7.5-12.5,3.2s-2.6,68.6-2.6,68.6L242.6,381.2z"/>
			<path class="st12" d="M382.4,367.3c0,0,10-4.6,16.5,6c8.3,13.5,6.3,80.2,4.1,79.7L382.4,367.3z"/>
			<path class="st12" d="M379.4,374.2c0,0,19.9-37.9-6.6-51.6s-93.5-13-113.6-7.1c-13.8,4.1-29.6,9.7-26.2,33.5
				c3.3,22.9,9.6,32.3,9.6,32.3L379.4,374.2z"/>
			<path class="st2" d="M227.5,458.1c0,40,39.3,72.4,87.7,72.4s87.7-32.4,87.7-72.4s-0.3-99.6-49.2-99.6
				c-33-1.5-38.5,22.9-38.5,22.9s-8.3-16.1-44.1-12.5C234.5,372.5,227.5,418.1,227.5,458.1z"/>
			<path class="st3" d="M285.5,495.5c0,0,19.4,2,32.3-6.4c0,0,11.3,6.5,28.9,6.6l6.3-9.8l-35.2-11.3l-40.2,13.8L285.5,495.5z"/>
			<path class="st18" d="M317.2,506.2c6,11.1,20.1,5.2,20.1,5.2c16.6-36.9,65.6-58.3,65.6-58.3s0,5.4,0,45.4c0,40-39,72.4-87.3,72.4
				l0,0c-48.3,0-88.1-32.4-88.1-72.4s0-45.4,0-45.4s49,21.4,65.6,58.3C293.1,511.4,311.2,517.3,317.2,506.2"/>
			<path class="st8" d="M402.9,453.1c0,0,0,5.4,0,45.4c0,40-39,72.4-87.3,72.4l0,0c-48.3,0-88.1-32.4-88.1-72.4s0-45.4,0-45.4"/>
			<path class="st8" d="M285.5,427.5c0,0,2.7-12.6-8.3-12.6c-10.3,0-7.6,12.6-7.6,12.6"/>
			<circle class="st10" cx="277.4" cy="419.3" r="4.4"/>
			<path class="st8" d="M363.8,427.5c0,0,2.7-12.6-8.3-12.6c-10.3,0-7.6,12.6-7.6,12.6"/>
			<circle class="st10" cx="355.7" cy="419.3" r="4.4"/>
			<path class="st8" d="M308.6,449.1c0,0,1.3,5.9,9.7,5.9s8.8-5.9,8.8-5.9"/>
			<path class="st8" d="M307.6,498.5c0,0,1.4,5.9,10.7,5.9s9.8-5.9,9.8-5.9"/>
			<line class="st8" x1="317.8" y1="415.9" x2="317.8" y2="443.1"/>
			<path class="st8" d="M250.4,407.3c0,0,6.2-10.2,17.5-13.3"/>
			<path class="st8" d="M378.8,400.7c0,0-6.2-10.2-17.5-13.3"/>
			<path class="st19" d="M291.4,512.6c0,0-9.9-23.7-36.5-41.2l-5.3,9.4C249.6,480.8,280.5,500.4,291.4,512.6z"/>
			<path class="st19" d="M339.1,512.6c0,0,9.9-23.7,36.5-41.2l5.3,9.4C380.8,480.8,349.9,500.4,339.1,512.6z"/>
			<path class="st18" d="M317.7,465.5c0,0-36.5-17.7-69.6,11.2c0,0,14.9,12.5,39.2,12.5C311.6,489.2,326.5,477.9,317.7,465.5z"/>
			<path class="st18" d="M319.5,465.5c0,0,36.5-17.7,69.6,11.2c0,0-14.9,12.5-39.2,12.5C325.6,489.2,310.7,477.9,319.5,465.5z"/>
			<path class="st20" d="M284.2,469.8c0,0-13.7,1-20.1,6.2"/>
			<path class="st20" d="M294.6,469.8c0,0,9.5-1.2,14,1.6"/>
			<path class="st20" d="M352.7,469.8c0,0,13.7,1,20.1,6.2"/>
			<path class="st20" d="M342.3,469.8c0,0-9.5-1.2-14,1.6"/>
			<path class="st20" d="M313.4,521c0,0-1.1,11.4-9.2,19.2"/>
			<path class="st20" d="M301.6,521c0,0-7.5,16.2-16.1,20.3"/>
			<path class="st20" d="M320.4,521c0,0,1.1,11.4,9.2,19.2"/>
			<path class="st20" d="M332.3,521c0,0,7.5,16.2,16.1,20.3"/>
			<path class="st20" d="M392.2,492c0,0-0.4,21.6-7.6,29"/>
			<path class="st20" d="M379.4,497.5c0,0,0,17-10.8,26.5"/>
			<path class="st20" d="M237.8,492c0,0,0.4,21.6,7.6,29"/>
			<path class="st20" d="M250.7,497.5c0,0,0,17,10.8,26.5"/>
			<path class="st19" d="M233.8,519.5c0,0,6.7,24.9,40.3,40.4s67.2,7.9,85.8-1.7c18.6-9.6,31.6-24,37.1-38.7c0,0-26.8,39-79.3,39
				S233.8,519.5,233.8,519.5z"/>
			<path class="st21" d="M285.7,354.3c0,0-22.7-4.9-35.2-20.7"/>
			<path class="st21" d="M316.5,354.5c0,0-9.7-13.2-29.8-14.1"/>
			<path class="st21" d="M335.7,352.5c0,0-6.6-15-26-20.3"/>
			<path class="st21" d="M360.6,347.4c0,0-6.6-15-26-20.3"/>
			<path class="st21" d="M274.9,335.3c-5.4-3-6.6-5.8-8.8-10"/>
			<path class="st21" d="M298.7,329.5c-5.8-2.1-7.5-4.7-10.3-8.5"/>
			<path class="st21" d="M258.5,360.3c-4.1-1.7-11.4-6.2-15.7-10.1"/>
			<path class="st11" d="M233.8,411c0,0,6.1-23.6,16.9-32c12.8-9.9,26.7-8.6,35.6-8.6s22.6,4.8,27.2,11.8c0,0-27.8-13.4-49.8-1.7
				C241.7,392.2,233.8,411,233.8,411z"/>
			<path class="st21" d="M296.8,358.5c0,0,14.8,2.9,15.9,9.5"/>
			<path class="st21" d="M366.1,334.9c0,0,12.4,8.5,10.8,15"/>
			<path class="st11" d="M317.4,381.2c0,0,4.7-18.4,28.3-20.6c23.6-2.2,36,7.3,42.5,18.3c0,0-20.2-16.9-41.4-12.9
				S317.4,381.2,317.4,381.2z"/>
		</g>
	</g>
	<g>
		<g>
			<path class="st1" d="M550.7,603.9c0,0,13.6,38.3,31.8,34.3s15.3-16.5,26.2-5.7c10.9,10.8,16.2,24.5,29.5,16.6
				c13.2-7.9,6-20.9,18-10.9c11.9,10,11.8,17,21,10c9.1-7,9.1-20.9,24.7-15.7c15.5,5.2,1,18.5,15.1,14.9s18.5-20.2,29.5-19.4
				c11,0.8,23.9,16,23.9-0.3c0-16.4-28.3-131.4-28.3-131.4l-177.7,7.9L550.7,603.9z"/>
			<polygon class="st1" points="650.2,671.5 655.5,675.8 655.5,709.2 637.3,709.2 637.3,671.5 			"/>
			<polygon class="st1" points="682.7,671.5 677.4,675.8 677.4,709.2 695.6,709.2 695.6,671.5 			"/>
			<path class="st1" d="M696.9,658h-30.5H636c-1.4,0.5-8.2,9.8,1.3,16.4h29.1h29.2C705.1,667.9,698.3,658.5,696.9,658z"/>
			<path class="st22" d="M696,569.7l-11.2-2.6c-4.9-1.3-5.8-7.6-5.8-12.7v-39.9h-12.6h-12.6v39.9c0,5-0.9,11.4-5.8,12.7l-11.2,2.6
				c0,0-6.7,17,5.8,20.7c11.3,3.4,23.8-4.9,23.8-4.9s12.5,8.2,23.8,4.9C702.7,586.7,696,569.7,696,569.7z"/>
			<path class="st1" d="M725.7,528.1c-10.2-4.2,0.8-15.8,0.8-15.8c16.2-34.3,7.8-67.8,7.8-67.8c6.1,2.6,10,3.5,10,3.5
				s-13.5-8.3-16.1-16.1c-2.6-7.8-4.6-11-11.2-13.2c-6.6-2.2-12.7-4.9-16.3-9.7c-3.6-4.9-7.4-7.1-15-8s-8.1-3.5-12.9-10.2
				c-4.8-6.7-14.7-1.9-19.3-5.7c-4.6-3.8-16.4-5.9-22-5.4c-5.7,0.4-16.5-2.7-19.5-8.9c-3-6.2-1.9-17.7,8.6-20.8s10.5-5.3,12.1-7.5
				s6-7.1,13.5-7.1s12.8,0.9,15.9-2.2c3.1-3.1,5.8-2.7,10.2,0s14.1,7.5,17.2,5.8c3.1-1.8,9.8-6.6,20-2.7c10.2,4,5.8,13.3,9.3,15.1
				c3.5,1.8,10.6-8,16.4-3.5c5.8,4.4,3.5,14.6,9,22.2s13.1-8.4,19.8-2.7c6.6,5.8-3.1,14.6,0,23s16.4,8.9,19.9,17.3s-8.4,10-6.2,20.1
				c2.2,10,14.6,7.3,14.6,15.5s-11.1,6-10.2,14.2c0.9,8.2,14.6,9.1,14.6,19.7s-17.7,5.3-15.5,14.8s15.9,4.7,15.5,14.2
				c-0.4,9.5-10.6,6.8-10.6,17c0,10.2,14.2,7.7,14.2,14.7s-9.3,4.6-9.3,14.9s9.7,12,9.3,20.2c-0.4,8.2-13.3-2.4-15.1,6.9
				s5.3,12.9,5.3,18.9s-9.3-2-15.5,3.7c-6.2,5.8-0.4,13.7-6.6,14.2s-17.3-1.3-18.2-10.2s-1.3-16.9-7.1-20.4s-8.9,7.1-14.6,0.4
				c-5.8-6.6,6.6-11.1,5.3-19.5s-10.6-1.7-10.6-10.2s9.3-4,10.2-9.8c0.9-5.8-7.1-7.1-7.8-11.5C725.1,531.3,735.9,532.3,725.7,528.1z
				"/>
			<path class="st23" d="M677.1,555.8c0,0-5,0.5-10.3,0.5s-10.9-0.5-10.9-0.5v-6.5h21.2V555.8L677.1,555.8z"/>
			<path class="st22" d="M585.6,456c0,48.4,36.2,92.6,81,92.6s81-41.7,81-92.6c0-36.9-0.2-91.9-45.4-91.9
				c-30.5-1.4-35.7,3.1-35.7,3.1s-7.6,3.1-40.5,6.5C592.1,377,585.6,419.1,585.6,456z"/>
			<path class="st8" d="M639.2,447.2c0,0,2.5-11.7-7.7-11.7c-9.5,0-7,11.7-7,11.7"/>
			<circle class="st10" cx="632.3" cy="438.6" r="4"/>
			<path class="st8" d="M711.5,447.2c0,0,2.5-11.7-7.7-11.7c-9.5,0-7,11.7-7,11.7"/>
			<circle class="st10" cx="704.3" cy="438.6" r="4"/>
			<path class="st8" d="M660.5,479.7c0,0,1.2,5.5,8.9,5.5s8.1-5.5,8.1-5.5"/>
			<path class="st1" d="M597.3,506.2"/>
			<path class="st23" d="M705.5,377.5c0,0,27.5-1,35.2,15.4c0,0-14.7-19.7-14.7-22.9c-13.7-1.2-22.3-9.5-22.3-9.5L705.5,377.5z"/>
			<path class="st23" d="M605.3,352.2c3.7-1.8-0.9-11.6,9.7-15.7c10.6-4.1,17.6,0.9,20.9,2.8c3.3,1.8,13.4-3.2,18-6s7.4-3.2,10.6,0
				c3.2,3.2,8.8,2.3,16.6,2.3s12.5,5.1,14.1,7.4s1.6,4.6,12.6,7.9c11,3.2,12.1,15.3,9,21.7c-3.1,6.5-14.5,9.7-20.4,9.2
				s-18.2,1.7-23,5.7c-4.8,3.9-15-1-20.1,5.9s-5.5,9.7-13.5,10.6s-11.9,3.2-15.7,8.3c-3.7,5.1-10.1,7.9-17,10.2
				c-6.8,2.3-9.6,5.3-11.7,13.8c-3,12.5-15.6,18.9-9.2,16.2l-12.7-3.5l6.7-61.9L605.3,352.2z"/>
			<path class="st1" d="M599.3,506.2c-21.3-39.5-10.1-70.1-10.1-70.1c-6.4,2.7-14.6,5.2-14.6,5.2s17.9-5.8,20.9-18.4
				c2-8.4,4.8-11.4,11.7-13.8c6.8-2.3,13.2-5.1,17-10.2c3.7-5.1,7.7-7.4,15.7-8.3s8.4-3.7,13.5-10.6s15.3-2,20.1-5.9
				s17.1-6.1,23-5.7c5.9,0.5,17.3-2.8,20.4-9.2c3.1-6.5,2-18.5-9-21.7s-11-5.5-12.6-7.9c-1.6-2.3-6.2-7.4-14.1-7.4
				c-7.9,0-13.4,0.9-16.6-2.3c-3.2-3.2-6-2.8-10.6,0s-14.7,7.9-18,6c-3.3-1.8-10.2-6.9-20.9-2.8s-6,13.9-9.7,15.7
				c-3.7,1.8-11.1-8.3-17.1-3.7s-3.6,15.3-9.4,23.1c-5.8,7.9-13.7-8.8-20.6-2.8c-6.9,6,3.2,15.3,0,24s-17.1,9.2-20.8,18
				s8.8,10.5,6.5,21s-15.3,7.6-15.3,16.2s11.6,6.3,10.6,14.8c-0.9,8.6-15.3,9.5-15.3,20.6s18.5,5.5,16.2,15.5
				c-2.3,9.9-16.6,4.9-16.2,14.8c0.5,9.9,11.1,7.1,11.1,17.8c0,10.6-14.8,8.1-14.8,15.4s9.7,4.8,9.7,15.5c0,10.7-10.2,12.5-9.7,21.1
				s13.9-2.5,15.7,7.2c1.8,9.7-5.5,13.5-5.5,19.7c0,6.2,9.7-2.1,16.2,3.9s-1.2,10.6,2.8,15.8c3.1,4,11.5,5.7,15.3-0.9"/>
			<path class="st8" d="M677.5,528.2c0,0-1.2-5.5-8.9-5.5s-8.1,5.5-8.1,5.5"/>
			<path class="st8" d="M650.3,509.2c0,0,5,5.5,19.1,5.5c13.2,0,21-5.5,21-5.5"/>
			<line class="st8" x1="669" y1="449" x2="669" y2="474.1"/>
			<ellipse class="st24" cx="713.4" cy="486.1" rx="17" ry="9"/>
			<ellipse class="st24" cx="624.2" cy="486.1" rx="17" ry="9"/>
			<line class="st25" x1="631.8" y1="434.4" x2="631.8" y2="426.3"/>
			<line class="st25" x1="626.5" y1="437.3" x2="620.4" y2="431.1"/>
			<line class="st25" x1="638.1" y1="437.3" x2="644.3" y2="431.1"/>
			<line class="st25" x1="703.7" y1="434.4" x2="703.7" y2="426.3"/>
			<line class="st25" x1="698.3" y1="437.3" x2="692.2" y2="431.1"/>
			<line class="st25" x1="709.9" y1="437.3" x2="716.1" y2="431.1"/>
			<path class="st8" d="M722.9,422.3c0,0-7.5-8-18.4-8.7"/>
			<path class="st8" d="M612,422.3c0,0,7.5-8,18.4-8.7"/>
			<path class="st23" d="M598.2,500c0,0,11.4,25.5,35.8,38.4c29,15.4,53.7,7,69.1-1.8c15.4-8.8,27.2-23,31.8-36.6
				c0,0-23.7,39.9-67,39.9S598.2,500,598.2,500z"/>
			<path class="st5" d="M580.4,588.2c0,0-19.5-1.7-19-13.8s19-6.1,19-24.1c0-16.8-20.3-6.3-21.2-21.5c-0.9-15.3,18.3-5.6,18.3-25.8"
				/>
			<path class="st5" d="M751.7,576.3c0,0,19.5-1.7,19-13.8s-19-6.1-19-24.1c0-16.8,20.3-6.3,21.2-21.5c0.9-15.3-18.3-5.6-18.3-25.8"
				/>
			<path class="st5" d="M571.6,431.7c0,0-14.9-12.6-7.6-22.3c7.3-9.7,19,6,29.4-8.7c9.6-13.8-13-16.8-4.9-29.8
				c8-13,18.2,6,29.8-10.5"/>
			<path class="st5" d="M602.1,535.9c0,0-10.4,6.3-7.5,13.9c4.1,10.5,12.3-1.8,19.1,10.7c5.4,10-6.6,12.5-6.6,12.5"/>
			<path class="st5" d="M683.2,334.5c0,0-11.2-8.2-16.8-3.6c-7.8,6.4-2,11.7-10.9,19.5c-8.4,7.4-19.2,0-19.2,0"/>
			<path class="st5" d="M767.4,414.2c0,0-12.5,5.9-11.2,13.1c1.9,9.9,9.4,7.4,12.1,18.8c2.5,10.8-9.1,16.9-9.1,16.9"/>
			<path class="st5" d="M557.6,451.2c0,0,12.2,6.1,9.1,13c-4.6,10.2-12.5,0.5-15.4,11.4c-2.7,10.1,8.1,10.2,8.1,10.2"/>
			<path class="st1" d="M740.1,391.2c0,0-4.5-12.7-15.5-22.5c-11.8,0.5-12.7-4.3-12.7-4.3s5.5-1.7,6.4-10.7"/>
			<path class="st26" d="M718.2,360.5c0,0,2.1-3.8,1.8-6.9c0,0,3.6-1.1,6.3-3.2c0,0,17.3,18.1,17.9,33.9c0,0-6.9-17.6-19.5-17.5
				C715.4,365,718.2,360.5,718.2,360.5z"/>
			<path class="st1" d="M633.2,601.8"/>
			<path class="st27" d="M634,579.3c0,0-9.2,0.7-10.6,10.2"/>
			<path class="st2" d="M635.3,683.7"/>
			<g>
				<path class="st22" d="M630.6,652.9c-0.9-0.6,0.7-28,0.7-28h-20.6l1.4,27.8c0,0-5.1,5-5.2,8.8c-0.1,2.8,1.3,6,3.2,8.1
					c3.3,3.7,19.6,3.6,20.9-1c0,0-2.2,2.5,2.4,4.7c7.2,1.7,4.2-10.9,2.8-13.5C634.7,657.4,635.5,657.6,630.6,652.9z"/>
				<path class="st22" d="M629.9,671.1"/>
				<path class="st22" d="M626.3,664.7"/>
				<path class="st22" d="M633.2,667.1"/>
				<path class="st28" d="M629.9,662.1c0,0.1,2.8,4.2,0.4,8"/>
				<line class="st29" x1="624.1" y1="669.4" x2="623.9" y2="667.4"/>
				<line class="st29" x1="616.2" y1="669.4" x2="615.9" y2="667.4"/>
			</g>
			<path class="st7" d="M630.6,689.3"/>
			<path class="st7" d="M625.7,680.4"/>
			<path class="st2" d="M635.3,683.7"/>
			<path class="st2" d="M634.6,689.3"/>
			<path class="st2" d="M631.8,678.7"/>
			<polygon class="st3" points="613.2,626.6 628.7,626.6 628.5,631.1 613.4,631.1 			"/>
			<path class="st30" d="M606.1,726.5h50v-17.4h-35.4c-8,0-14.6,6.6-14.6,14.6V726.5z"/>
			<path class="st28" d="M625.6,709.2c0,0,1.9,8.7,11.9,8.7s18.6,0,18.6,0v-8.7H625.6z"/>
			<path class="st23" d="M628,710.9h26.3v3.9C654.3,714.7,642.3,714.8,628,710.9z"/>
			<g>
				<path class="st31" d="M639,569.2L639,569.2C639.4,569.2,639,569.2,639,569.2z"/>
				<path class="st31" d="M722.6,597.5c-0.5-13.2-5.6-22.9-16.8-25.4c-8.9-2-11.3-2.6-11.9-2.8c-0.2,1-4,16.8-27.4,16.3
					c-23.4,0.6-27.2-15.3-27.4-16.3c-0.6,0.2-3.1,0.8-11.9,2.8c-11.2,2.5-16.3,12.3-16.8,25.4c-0.3,8.6-1.2,27.4-1.2,27.4h23.5
					l0.5-21.1c0,0,0.8,14.5,5.3,31.6c3.1,11.8-2.4,22.6-2.4,22.6h30.3h30.4c0,0-5.4-10.9-2.4-22.6c4.5-17.2,5.3-31.6,5.3-31.6
					l0.5,21.1h23.5C723.8,624.9,722.9,606.1,722.6,597.5z"/>
				<path class="st31" d="M693.9,569.3C693.9,569.2,693.9,569.2,693.9,569.3C693.9,569.2,693.5,569.2,693.9,569.3z"/>
			</g>
			<path class="st32" d="M659.6,611.3c-2,2.7-4.9,4.8-8.5,5.6c-2.4,0.6-4.7,0.5-6.9,0c-5.2-1.3-9.5-5.3-10.8-10.9
				c-0.6-2.4,0.2-7.4,1.5-9.2"/>
			<path class="st32" d="M673.3,611.3c2,2.7,4.9,4.8,8.5,5.6c2.4,0.6,4.7,0.5,6.9,0c5.2-1.3,9.5-5.3,10.8-10.9
				c0.6-2.4-0.2-7.4-1.5-9.2"/>
			<path class="st1" d="M699.7,601.8"/>
			<path class="st27" d="M698.9,579.3c0,0,9.2,0.7,10.6,10.2"/>
			<path class="st2" d="M697.6,683.7"/>
			<g>
				<path class="st22" d="M702.3,652.9c0.9-0.6-0.7-28-0.7-28h20.6l-1.4,27.8c0,0,5.1,5,5.2,8.8c0.1,2.8-1.3,6-3.2,8.1
					c-3.3,3.7-19.6,3.6-20.9-1c0,0,2.2,2.5-2.4,4.7c-7.2,1.7-4.2-10.9-2.8-13.5C698.2,657.4,697.4,657.6,702.3,652.9z"/>
				<path class="st22" d="M703,671.1"/>
				<path class="st22" d="M706.5,664.7"/>
				<path class="st22" d="M699.6,667.1"/>
				<path class="st28" d="M703,662.1c0,0.1-2.8,4.2-0.4,8"/>
				<line class="st29" x1="708.8" y1="669.4" x2="709" y2="667.4"/>
				<line class="st29" x1="716.7" y1="669.4" x2="717" y2="667.4"/>
			</g>
			<path class="st7" d="M702.3,689.3"/>
			<path class="st7" d="M707.2,680.4"/>
			<path class="st2" d="M697.6,683.7"/>
			<path class="st2" d="M698.3,689.3"/>
			<path class="st2" d="M701.1,678.7"/>
			<polygon class="st3" points="719.7,626.6 704.2,626.6 704.4,631.1 719.5,631.1 			"/>
			<path class="st30" d="M726.8,726.5h-50v-17.4h35.4c8,0,14.6,6.6,14.6,14.6V726.5z"/>
			<path class="st28" d="M707.3,709.2c0,0-1.9,8.7-11.9,8.7s-18.6,0-18.6,0v-8.7H707.3z"/>
			<path class="st23" d="M704.8,710.9h-26.3v3.9C678.5,714.7,690.6,714.8,704.8,710.9z"/>
		</g>
	</g>
</g>
</svg>
